<?xml version="1.0" encoding="iso-8859-1"?>
<!-- Generator: Adobe Illustrator 18.0.0, SVG Export Plug-In . SVG Version: 6.00 Build 0)  -->
<!DOCTYPE svg PUBLIC "-//W3C//DTD SVG 1.1//EN" "http://www.w3.org/Graphics/SVG/1.1/DTD/svg11.dtd">
<svg version="1.1" id="_x31_" xmlns="http://www.w3.org/2000/svg" xmlns:xlink="http://www.w3.org/1999/xlink" x="0px" y="0px"
	 viewBox="0 0 512 512" style="enable-background:new 0 0 512 512;" xml:space="preserve">
<g>
	<rect style="fill:#F6B598;" width="512" height="512"/>
	<path style="opacity:0.1;fill:#040000;" d="M512,209.049V512H263.987L119.552,367.564l-15.565-15.616
		c-0.256-0.973-0.307-1.997-0.307-3.021v-84.224l75.008-75.059l20.173-20.122l2.458-2.458l35.891-35.943l6.349-6.298h180.326
		c1.536,0,3.021,0.154,4.454,0.564L512,209.049z"/>
	<g>
		<g>
			<path style="fill:#3D3D3D;" d="M338.914,193.836v140.44c0,9.449-6.945,17.249-15.997,18.615
				c-0.968,0.227-1.936,0.284-2.903,0.284H233.77l-62.961,48.672l1.253-48.672h-66.605c-1.025,0-1.992-0.057-2.96-0.284
				c-8.026-1.196-14.345-7.572-15.598-15.598c-0.228-0.969-0.285-1.993-0.285-3.017v-140.44c0-10.417,8.425-18.842,18.843-18.842
				h214.558C330.432,174.993,338.914,183.419,338.914,193.836z"/>
			<path style="fill:#5ABB8F;" d="M425.387,128.711v178.125c0,10.247-8.311,18.558-18.558,18.558H139.157
				c-10.247,0-18.501-8.311-18.501-18.558V128.711c0-10.246,8.255-18.558,18.501-18.558h267.672c1.537,0,3.017,0.171,4.44,0.57
				c6.661,1.594,11.955,6.888,13.549,13.548C425.216,125.694,425.387,127.174,425.387,128.711z"/>
			<path style="fill:#6EC098;" d="M425.387,132.981v169.643c0,5.351-1.822,10.304-4.953,14.175c-0.569,0.74-1.196,1.423-1.879,2.106
				c-0.513,0.512-1.082,0.968-1.651,1.423c-0.626,0.569-1.31,1.025-2.05,1.48c-0.455,0.341-1.025,0.626-1.537,0.911
				c1.366-1.765,2.448-3.757,3.245-5.921c0.911-2.447,1.423-5.123,1.423-7.913V139.243c0-12.581-10.247-22.771-22.828-22.771
				H136.026c-3.871,0-7.457,0.91-10.645,2.618c4.155-5.408,10.702-8.938,18.046-8.938h259.189c3.928,0,7.628,1.025,10.873,2.789
				c3.871,2.107,7.059,5.295,9.165,9.166C424.362,125.353,425.387,129.053,425.387,132.981z"/>
			<polygon style="fill:#5ABB8F;" points="222.332,305.835 321.675,305.835 323.703,384.201 			"/>
			<path style="opacity:0.06;fill:#040000;" d="M420.441,316.794c-4.176,5.251-10.623,8.616-17.84,8.616h-80.422l1.52,58.791
				l-76.043-58.791H143.433c-7.217,0-13.664-3.365-17.84-8.616H244.25l75.395,58.285l-1.5-58.285H420.441z"/>
			<g>
				<rect x="181.789" y="152.411" style="fill:#93CEB2;" width="178.401" height="19.259"/>
				<rect x="181.79" y="205.453" style="fill:#93CEB2;" width="196.646" height="19.259"/>
				<rect x="181.789" y="258.163" style="fill:#93CEB2;" width="107.193" height="19.259"/>
			</g>
		</g>
		<path style="opacity:0.06;fill:#040000;" d="M226.746,358.605l7.024-5.43h49.799l40.131,31.026v-0.002l0.003,0.002l-0.81-31.307
			c0.008-0.003,0.017-0.001,0.025-0.003c9.051-1.366,15.997-9.166,15.997-18.615v-8.866h63.686c0.046,0,0.087-0.015,0.132-0.015
			h4.096c10.247,0,18.558-8.311,18.558-18.558v-4.213v-142.66L226.746,358.605z"/>
	</g>
</g>
</svg>
