<svg id="レイヤー_1" data-name="レイヤー 1" xmlns="http://www.w3.org/2000/svg" viewBox="0 0 603.03 86.09"><defs><style>.cls-1{fill:#88c1ad;}.cls-2{fill:none;}</style></defs><title>アートボード 3</title><path class="cls-1" d="M0,81.6V3.11A3.11,3.11,0,0,1,3.11,0H43.62Q55.76,0,62.17,2.08A19.77,19.77,0,0,1,72.51,9.79a23.4,23.4,0,0,1,3.93,13.73,23.61,23.61,0,0,1-3,12.16A23.53,23.53,0,0,1,65.17,44a28.73,28.73,0,0,1-7.32,2.89l4.94,3.58A26.69,26.69,0,0,1,67,54.9a33.25,33.25,0,0,1,3.66,5.26L81,80.17a3.1,3.1,0,0,1-2.76,4.53H55.59a3.1,3.1,0,0,1-2.73-1.62L39.75,58.82q-2.66-5-4.74-6.53a10.94,10.94,0,0,0-6.41-2H26.29V81.6a3.1,3.1,0,0,1-3.11,3.1H3.11A3.1,3.1,0,0,1,0,81.6ZM26.29,31.22a3.1,3.1,0,0,0,3.1,3.1h7.94a39.34,39.34,0,0,0,6.93-1.15,7,7,0,0,0,4.25-2.66,7.87,7.87,0,0,0,1.64-4.91,7.76,7.76,0,0,0-2.6-6.3c-1.73-1.47-5-2.2-9.76-2.2h-8.4a3.1,3.1,0,0,0-3.1,3.11Z"/><path class="cls-1" d="M158.26,59.86H113.11a1.74,1.74,0,0,0-1.69,2.07,13.28,13.28,0,0,0,2.75,6.36,11.14,11.14,0,0,0,8.9,4,13.44,13.44,0,0,0,6.59-1.73,10.38,10.38,0,0,0,1.57-1.15,10,10,0,0,1,7.52-2.26l13.94,1.28a2.59,2.59,0,0,1,1.91,4,30.69,30.69,0,0,1-10.5,9.62q-7.51,4-21.55,4-12.19,0-19.18-3.44A28.15,28.15,0,0,1,91.78,71.73a33,33,0,0,1-4.59-17.59q0-14.39,9.21-23.29T121.86,22q13.17,0,20.8,4A27,27,0,0,1,154.27,37.5q4,7.56,4,19.7ZM132.37,48.59a1.73,1.73,0,0,0,1.69-2c-.59-3.49-1.72-6.07-3.39-7.72a11.51,11.51,0,0,0-16.79,1.5,14.15,14.15,0,0,0-2.42,6.19,1.74,1.74,0,0,0,1.69,2.07Z"/><path class="cls-1" d="M218,61l14,1.59a4.19,4.19,0,0,1,3.33,5.88,30,30,0,0,1-4.21,6.82,28.38,28.38,0,0,1-10.78,7.94q-6.56,2.83-16.67,2.83a61.49,61.49,0,0,1-16.26-1.82,28.29,28.29,0,0,1-11.18-5.89,29.63,29.63,0,0,1-7.34-9.55c-1.77-3.66-2.66-8.5-2.66-14.55q0-9.47,3.24-15.76a28.38,28.38,0,0,1,6.47-8.28,30,30,0,0,1,8.43-5.46Q191.26,22,202,22q15,0,22.91,5.37a26.76,26.76,0,0,1,9,10.42,4.18,4.18,0,0,1-3.18,6l-13.62,1.81a4,4,0,0,1-4.17-2.09,9.3,9.3,0,0,0-2.84-3.4,12.29,12.29,0,0,0-7.37-2,11.89,11.89,0,0,0-9.45,4.18q-3.62,4.18-3.61,12.66,0,7.56,3.58,11.47a11.81,11.81,0,0,0,9.13,3.93,11.78,11.78,0,0,0,11.38-6.88A4.21,4.21,0,0,1,218,61Z"/><path class="cls-1" d="M245.1,54.2q0-14,9.47-23.14t25.6-9.1Q298.6,22,308,32.65q7.58,8.6,7.57,21.2,0,14.16-9.39,23.2t-26,9q-14.79,0-23.92-7.51Q245.11,69.28,245.1,54.2Zm23.57-.06q0,8.2,3.33,12.13a10.88,10.88,0,0,0,16.69.06Q292,62.46,292,53.91q0-8-3.3-11.88a10.24,10.24,0,0,0-8.14-3.9,10.67,10.67,0,0,0-8.5,4Q268.68,46.05,268.67,54.14Z"/><path class="cls-1" d="M329,2.49A2.48,2.48,0,0,1,331.46,0h41q14.2,0,21.29,6.76T400.86,26q0,12.82-7.72,20T369.6,53.27H357.75a2.49,2.49,0,0,0-2.48,2.49V82.22a2.48,2.48,0,0,1-2.49,2.48H331.46A2.48,2.48,0,0,1,329,82.22Zm26.29,31.14a2.48,2.48,0,0,0,2.48,2.48h3.93q7.57,0,10.63-2.63a8.47,8.47,0,0,0,3.07-6.73A9.41,9.41,0,0,0,372.72,20q-2.66-2.77-10-2.77h-5a2.48,2.48,0,0,0-2.48,2.48Z"/><path class="cls-1" d="M474.29,59.86H430a2.39,2.39,0,0,0-2.36,2.88,12.69,12.69,0,0,0,2.58,5.55,11.16,11.16,0,0,0,8.9,4,13.44,13.44,0,0,0,6.59-1.73,13.62,13.62,0,0,0,3.29-2.9,2.48,2.48,0,0,1,2.07-.86l18,1.66a2.41,2.41,0,0,1,1.77,3.76,30.88,30.88,0,0,1-10.68,9.87q-7.5,4-21.55,4-12.19,0-19.18-3.44a28.21,28.21,0,0,1-11.59-10.92,33,33,0,0,1-4.59-17.59q0-14.39,9.22-23.29T437.89,22q13.17,0,20.8,4A27,27,0,0,1,470.3,37.5q4,7.56,4,19.7ZM447.58,48.59A2.41,2.41,0,0,0,450,45.74a13.22,13.22,0,0,0-3.25-6.91,11.51,11.51,0,0,0-16.79,1.5,13.33,13.33,0,0,0-2.26,5.37A2.41,2.41,0,0,0,430,48.59Z"/><path class="cls-1" d="M514.7,4.12V20.83a2.51,2.51,0,0,0,2.52,2.51h7.91a2.51,2.51,0,0,1,2.51,2.52V38a2.51,2.51,0,0,1-2.51,2.52h-7.91a2.52,2.52,0,0,0-2.52,2.52V62.3q0,3.92.75,5.19a4.3,4.3,0,0,0,4,2,19.13,19.13,0,0,0,4.44-.68,2.53,2.53,0,0,1,3.16,2.16l1.17,11a2.53,2.53,0,0,1-2,2.74,74.19,74.19,0,0,1-14,1.44q-8.79,0-13-2.25A13.74,13.74,0,0,1,493.12,77q-2-4.59-2-14.86V45.57a5,5,0,0,0-5-5H485a2.5,2.5,0,0,1-2.5-2.49V25.84a2.5,2.5,0,0,1,2.5-2.5h1.16a5,5,0,0,0,5-5V13.61a2.53,2.53,0,0,1,1.37-2.24L511,1.88A2.51,2.51,0,0,1,514.7,4.12Z"/><path class="cls-1" d="M543.29,67.14l15-1.4a4.13,4.13,0,0,1,4,2.23,9.61,9.61,0,0,0,2.95,3.44,12,12,0,0,0,6.94,1.8c3.15,0,5.6-.68,7.33-2a4.52,4.52,0,0,0,2-3.75,4.31,4.31,0,0,0-2.66-3.93q-1.91-1-10.11-2.42-12.26-2.13-17-4a17.92,17.92,0,0,1-8-6.15,16,16,0,0,1-3.27-9.87,16.19,16.19,0,0,1,3.53-10.45,21,21,0,0,1,9.71-6.55Q559.81,22,570.21,22q11,0,16.21,1.67a21.18,21.18,0,0,1,8.72,5.2,21.42,21.42,0,0,1,2.78,3.49A4.32,4.32,0,0,1,594.75,39l-13.89,1.36a3.06,3.06,0,0,1-3-1.67,6.66,6.66,0,0,0-2.12-2.44,11.78,11.78,0,0,0-6.71-1.85c-2.65,0-4.59.47-5.8,1.41a4.21,4.21,0,0,0-1.82,3.44,3.66,3.66,0,0,0,2.31,3.4q2.31,1.15,10,2.07,11.73,1.34,17.45,3.7A19.27,19.27,0,0,1,600,55.15a16.56,16.56,0,0,1,3,9.64,18.92,18.92,0,0,1-3.21,10.33q-3.21,5-10.11,8t-18.81,3q-16.81,0-23.95-4.79a21.16,21.16,0,0,1-7-7.79A4.33,4.33,0,0,1,543.29,67.14Z"/><rect id="_スライス_" data-name="&lt;スライス&gt;" class="cls-2" x="-3.97" y="-2.63" width="610" height="92"/></svg>